<?xml version="1.0" encoding="utf-8"?>
<!-- Generator: Adobe Illustrator 25.0.0, SVG Export Plug-In . SVG Version: 6.00 Build 0)  -->
<svg version="1.1" id="Layer_1" xmlns="http://www.w3.org/2000/svg" xmlns:xlink="http://www.w3.org/1999/xlink" x="0px" y="0px"
	 viewBox="0 0 16 16" style="enable-background:new 0 0 16 16;" xml:space="preserve">
<style type="text/css">
	.st0{fill:url(#SVGID_1_);}
	.st1{fill:url(#SVGID_2_);}
	.st2{fill:url(#SVGID_3_);}
	.st3{fill:url(#SVGID_4_);}
	.st4{fill:url(#SVGID_5_);}
	.st5{fill:url(#SVGID_6_);}
	.st6{fill:url(#SVGID_7_);}
	.st7{fill:url(#SVGID_8_);}
	.st8{fill:url(#SVGID_9_);}
	.st9{fill:url(#SVGID_10_);}
	.st10{fill:url(#SVGID_11_);}
	.st11{fill:url(#SVGID_12_);}
	.st12{fill:url(#SVGID_13_);}
	.st13{fill:url(#SVGID_14_);}
	.st14{fill:url(#SVGID_15_);}
	.st15{fill:url(#SVGID_16_);}
	.st16{fill:url(#SVGID_17_);}
	.st17{fill:url(#SVGID_18_);}
	.st18{fill:url(#SVGID_19_);}
	.st19{fill:url(#SVGID_20_);}
</style>
<g>
	<g>
		
			<linearGradient id="SVGID_1_" gradientUnits="userSpaceOnUse" x1="-3838.3945" y1="-3672.5667" x2="-3840.7717" y2="-3673.7153" gradientTransform="matrix(0 -1 -1 0 -3667.8594 -3828.4463)">
			<stop  offset="0" style="stop-color:#EE4023"/>
			<stop  offset="1" style="stop-color:#F9A533"/>
		</linearGradient>
		<path class="st0" d="M6.8,12.1c-0.2-0.6-0.4-1.2-1-1.8c-0.7-0.7-2-0.9-3.1-1c0.6,0.1,1.3,0,2.5,0C6.8,9.3,6.4,10.5,6.8,12.1z"/>
		
			<linearGradient id="SVGID_2_" gradientUnits="userSpaceOnUse" x1="-3837.6626" y1="-3671.9202" x2="-3840.8538" y2="-3674.2859" gradientTransform="matrix(0 -1 -1 0 -3667.8594 -3828.4463)">
			<stop  offset="0" style="stop-color:#EE4023"/>
			<stop  offset="1" style="stop-color:#F9A533"/>
		</linearGradient>
		<path class="st1" d="M7.4,10.2c-0.1,1-0.5,2.4-0.3,3.1C7,13,6.9,12.6,6.8,12.1c-0.4-1.6,0-2.9-1.6-2.8c-1.2,0-1.9,0.1-2.5,0
			C1.9,9.3,1.2,9.2,0.7,9c0.6,0.2,2.1,0,4.4-0.4C6.9,8.4,7.5,9,7.4,10.2z"/>
		
			<linearGradient id="SVGID_3_" gradientUnits="userSpaceOnUse" x1="-3834.7407" y1="-3667.7151" x2="-3839.7068" y2="-3675.176" gradientTransform="matrix(0 -1 -1 0 -3667.8594 -3828.4463)">
			<stop  offset="0" style="stop-color:#EE4023"/>
			<stop  offset="1" style="stop-color:#F9A533"/>
		</linearGradient>
		<path class="st2" d="M0.1,8.3H6c0.9,0,1.6,0.7,1.6,1.5v4c-0.2,0-0.5-0.2-0.6-0.5c0,0,0,0,0,0c-0.2-0.7,0.1-2.1,0.3-3.1
			C7.5,9,6.9,8.4,5,8.7C2.8,9,1.3,9.2,0.7,9.1c0,0,0,0,0,0c0,0,0,0-0.1,0c0,0,0,0,0,0C0.3,8.9,0.1,8.7,0.1,8.3z"/>
		
			<linearGradient id="SVGID_4_" gradientUnits="userSpaceOnUse" x1="-3836.478" y1="-3669.7412" x2="-3838.9614" y2="-3675.1184" gradientTransform="matrix(0 -1 -1 0 -3667.8594 -3828.4463)">
			<stop  offset="0" style="stop-color:#EE4023"/>
			<stop  offset="1" style="stop-color:#F9A533"/>
		</linearGradient>
		<path class="st3" d="M0.5,9c0,0,0.5,0.4,3.3-0.4C6,7.9,6.9,8.8,6.9,8.8S6.3,8.4,4.2,8.9C1.5,9.6,0.5,9,0.5,9z"/>
		
			<linearGradient id="SVGID_5_" gradientUnits="userSpaceOnUse" x1="-3837.9885" y1="-3672.5103" x2="-3840.9185" y2="-3674.134" gradientTransform="matrix(0 -1 -1 0 -3667.8594 -3828.4463)">
			<stop  offset="0" style="stop-color:#EE4023"/>
			<stop  offset="1" style="stop-color:#F9A533"/>
		</linearGradient>
		<path class="st4" d="M2.7,9.3c0,0,1.4,0.1,2.3,0.2c1.1,0,1.4,0.9,1.7,2.1C6.4,10.3,7,9.5,6,9.2C5,8.8,3.6,9.4,2.7,9.3z"/>
	</g>
	<g>
		
			<linearGradient id="SVGID_6_" gradientUnits="userSpaceOnUse" x1="-3644.9121" y1="3785.5378" x2="-3647.2896" y2="3784.3889" gradientTransform="matrix(0 1 1 0 -3774.2461 3650.937)">
			<stop  offset="0" style="stop-color:#EE4023"/>
			<stop  offset="1" style="stop-color:#F9A533"/>
		</linearGradient>
		<path class="st5" d="M9.2,3.8c0.2,0.6,0.4,1.2,1,1.8c0.7,0.7,2,0.9,3.1,1c-0.6-0.1-1.3,0-2.5,0C9.2,6.7,9.6,5.4,9.2,3.8z"/>
		
			<linearGradient id="SVGID_7_" gradientUnits="userSpaceOnUse" x1="-3644.1804" y1="3786.1841" x2="-3647.3713" y2="3783.8184" gradientTransform="matrix(0 1 1 0 -3774.2461 3650.937)">
			<stop  offset="0" style="stop-color:#EE4023"/>
			<stop  offset="1" style="stop-color:#F9A533"/>
		</linearGradient>
		<path class="st6" d="M8.6,5.8c0.1-1,0.5-2.4,0.3-3.1C9,3,9.1,3.4,9.2,3.8c0.4,1.6,0,2.9,1.6,2.8c1.2,0,1.9-0.1,2.5,0
			c0.8,0.1,1.5,0.1,2,0.3c-0.6-0.2-2.1,0-4.4,0.4C9.1,7.6,8.5,6.9,8.6,5.8z"/>
		
			<linearGradient id="SVGID_8_" gradientUnits="userSpaceOnUse" x1="-3641.2571" y1="3790.3882" x2="-3646.2231" y2="3782.9275" gradientTransform="matrix(0 1 1 0 -3774.2461 3650.937)">
			<stop  offset="0" style="stop-color:#EE4023"/>
			<stop  offset="1" style="stop-color:#F9A533"/>
		</linearGradient>
		<path class="st7" d="M15.9,7.6H10C9.1,7.6,8.4,7,8.4,6.1v-4c0.2,0,0.5,0.2,0.6,0.5c0,0,0,0,0,0c0.2,0.7-0.1,2.1-0.3,3.1
			C8.5,6.9,9.1,7.6,11,7.3c2.3-0.4,3.7-0.6,4.4-0.4c0,0,0,0,0,0c0,0,0,0,0.1,0c0,0,0,0,0,0C15.7,7.1,15.9,7.3,15.9,7.6z"/>
		
			<linearGradient id="SVGID_9_" gradientUnits="userSpaceOnUse" x1="-3642.9941" y1="3788.3623" x2="-3645.4775" y2="3782.9849" gradientTransform="matrix(0 1 1 0 -3774.2461 3650.937)">
			<stop  offset="0" style="stop-color:#EE4023"/>
			<stop  offset="1" style="stop-color:#F9A533"/>
		</linearGradient>
		<path class="st8" d="M15.5,7c0,0-0.5-0.4-3.3,0.4C10,8,9.1,7.1,9.1,7.1s0.6,0.5,2.7-0.1C14.5,6.4,15.5,7,15.5,7z"/>
		
			<linearGradient id="SVGID_10_" gradientUnits="userSpaceOnUse" x1="-3644.5027" y1="3785.5876" x2="-3647.4324" y2="3783.9636" gradientTransform="matrix(0 1 1 0 -3774.2461 3650.937)">
			<stop  offset="0" style="stop-color:#EE4023"/>
			<stop  offset="1" style="stop-color:#F9A533"/>
		</linearGradient>
		<path class="st9" d="M13.3,6.6c0,0-1.4-0.1-2.3-0.2c-1.1,0-1.4-0.9-1.7-2.1C9.5,5.7,9,6.5,10,6.8C11,7.1,12.4,6.6,13.3,6.6z"/>
	</g>
	<g>
		
			<linearGradient id="SVGID_11_" gradientUnits="userSpaceOnUse" x1="-7436.2178" y1="155.2154" x2="-7438.5952" y2="154.0666" gradientTransform="matrix(-1 0 0 1 -7426.2598 -143.9337)">
			<stop  offset="0" style="stop-color:#EE4023"/>
			<stop  offset="1" style="stop-color:#F9A533"/>
		</linearGradient>
		<path class="st10" d="M12.2,9.2c-0.6,0.2-1.2,0.4-1.8,1c-0.7,0.7-0.9,2-1,3.1c0.1-0.6,0-1.3,0-2.5C9.3,9.2,10.6,9.6,12.2,9.2z"/>
		
			<linearGradient id="SVGID_12_" gradientUnits="userSpaceOnUse" x1="-7435.4858" y1="155.8612" x2="-7438.6768" y2="153.4956" gradientTransform="matrix(-1 0 0 1 -7426.2598 -143.9337)">
			<stop  offset="0" style="stop-color:#EE4023"/>
			<stop  offset="1" style="stop-color:#F9A533"/>
		</linearGradient>
		<path class="st11" d="M10.2,8.6c1,0.1,2.4,0.5,3.1,0.3C13,9,12.6,9.1,12.2,9.2c-1.6,0.4-2.9,0-2.8,1.6c0,1.2,0.1,1.9,0,2.5
			c-0.1,0.8-0.1,1.5-0.3,2c0.2-0.6,0-2.1-0.4-4.4C8.4,9,9,8.4,10.2,8.6z"/>
		
			<linearGradient id="SVGID_13_" gradientUnits="userSpaceOnUse" x1="-7432.5649" y1="160.0672" x2="-7437.5312" y2="152.6064" gradientTransform="matrix(-1 0 0 1 -7426.2598 -143.9337)">
			<stop  offset="0" style="stop-color:#EE4023"/>
			<stop  offset="1" style="stop-color:#F9A533"/>
		</linearGradient>
		<path class="st12" d="M8.4,15.9V10c0-0.9,0.7-1.6,1.5-1.6h4c0,0.2-0.2,0.5-0.5,0.6c0,0,0,0,0,0c-0.7,0.2-2.1-0.1-3.1-0.3
			C9.1,8.5,8.4,9,8.7,10.9c0.4,2.3,0.6,3.7,0.4,4.4c0,0,0,0,0,0c0,0,0,0,0,0.1c0,0,0,0,0,0C8.9,15.7,8.7,15.9,8.4,15.9z"/>
		
			<linearGradient id="SVGID_14_" gradientUnits="userSpaceOnUse" x1="-7434.3062" y1="158.0427" x2="-7436.7896" y2="152.6654" gradientTransform="matrix(-1 0 0 1 -7426.2598 -143.9337)">
			<stop  offset="0" style="stop-color:#EE4023"/>
			<stop  offset="1" style="stop-color:#F9A533"/>
		</linearGradient>
		<path class="st13" d="M9,15.5c0,0,0.4-0.5-0.4-3.3C8,10,8.8,9.1,8.8,9.1s-0.5,0.6,0.1,2.7C9.6,14.5,9,15.5,9,15.5z"/>
		
			<linearGradient id="SVGID_15_" gradientUnits="userSpaceOnUse" x1="-7435.8105" y1="155.2682" x2="-7438.7397" y2="153.6443" gradientTransform="matrix(-1 0 0 1 -7426.2598 -143.9337)">
			<stop  offset="0" style="stop-color:#EE4023"/>
			<stop  offset="1" style="stop-color:#F9A533"/>
		</linearGradient>
		<path class="st14" d="M9.3,13.3c0,0,0.1-1.4,0.2-2.3c0-1.1,0.9-1.4,2.1-1.7C10.3,9.5,9.5,9,9.2,10C8.8,11,9.4,12.3,9.3,13.3z"/>
	</g>
	<g>
		
			<linearGradient id="SVGID_16_" gradientUnits="userSpaceOnUse" x1="6.0409" y1="13.2991" x2="3.6678" y2="12.1523" gradientTransform="matrix(1 0 0 -1 0 18)">
			<stop  offset="0" style="stop-color:#EE4023"/>
			<stop  offset="1" style="stop-color:#F9A533"/>
		</linearGradient>
		<path class="st15" d="M3.8,6.8c0.6-0.2,1.2-0.4,1.8-1c0.7-0.7,0.9-1.9,1-3.1c-0.1,0.6,0,1.3,0,2.5C6.7,6.8,5.4,6.4,3.8,6.8z"/>
		
			<linearGradient id="SVGID_17_" gradientUnits="userSpaceOnUse" x1="6.7678" y1="13.9469" x2="3.5834" y2="11.586" gradientTransform="matrix(1 0 0 -1 0 18)">
			<stop  offset="0" style="stop-color:#EE4023"/>
			<stop  offset="1" style="stop-color:#F9A533"/>
		</linearGradient>
		<path class="st16" d="M5.8,7.4c-1-0.1-2.4-0.5-3.1-0.3C3,7,3.4,6.9,3.8,6.8c1.6-0.4,2.9,0,2.8-1.6c0-1.2-0.1-1.9,0-2.5
			c0.1-0.8,0.1-1.5,0.3-2C6.8,1.3,7,2.8,7.3,5C7.6,6.9,7,7.5,5.8,7.4z"/>
		
			<linearGradient id="SVGID_18_" gradientUnits="userSpaceOnUse" x1="9.6877" y1="18.1366" x2="4.7333" y2="10.6934" gradientTransform="matrix(1 0 0 -1 0 18)">
			<stop  offset="0" style="stop-color:#EE4023"/>
			<stop  offset="1" style="stop-color:#F9A533"/>
		</linearGradient>
		<path class="st17" d="M7.6,0.1V6c0,0.9-0.7,1.6-1.5,1.6h-4c0-0.2,0.2-0.5,0.5-0.6c0,0,0,0,0,0c0.7-0.2,2.1,0.1,3.1,0.3
			C7,7.5,7.6,6.9,7.3,5C7,2.8,6.8,1.3,6.9,0.7c0,0,0,0,0,0c0,0,0,0,0-0.1c0,0,0,0,0,0C7.1,0.3,7.3,0.1,7.6,0.1z"/>
		
			<linearGradient id="SVGID_19_" gradientUnits="userSpaceOnUse" x1="7.9533" y1="16.1161" x2="5.4777" y2="10.7555" gradientTransform="matrix(1 0 0 -1 0 18)">
			<stop  offset="0" style="stop-color:#EE4023"/>
			<stop  offset="1" style="stop-color:#F9A533"/>
		</linearGradient>
		<path class="st18" d="M7,0.5c0,0-0.4,0.5,0.4,3.3C8,6,7.2,6.9,7.2,6.9s0.5-0.6-0.1-2.7C6.4,1.5,7,0.5,7,0.5z"/>
		
			<linearGradient id="SVGID_20_" gradientUnits="userSpaceOnUse" x1="6.4505" y1="13.3474" x2="3.5267" y2="11.7267" gradientTransform="matrix(1 0 0 -1 0 18)">
			<stop  offset="0" style="stop-color:#EE4023"/>
			<stop  offset="1" style="stop-color:#F9A533"/>
		</linearGradient>
		<path class="st19" d="M6.7,2.7c0,0-0.1,1.4-0.2,2.3c0,1.1-0.9,1.4-2.1,1.7C5.7,6.4,6.5,7,6.8,5.9C7.2,5,6.6,3.6,6.7,2.7z"/>
	</g>
</g>
</svg>
