<?xml version="1.0" encoding="utf-8"?>
<!-- Generator: Adobe Illustrator 25.0.0, SVG Export Plug-In . SVG Version: 6.00 Build 0)  -->
<svg version="1.1" id="Layer_1" xmlns="http://www.w3.org/2000/svg" xmlns:xlink="http://www.w3.org/1999/xlink" x="0px" y="0px"
	 viewBox="0 0 194.8 73.2" style="enable-background:new 0 0 194.8 73.2;" xml:space="preserve">
<style type="text/css">
	.st0{fill:#FFFFFF;}
	.st1{fill:url(#SVGID_1_);}
	.st2{fill:url(#SVGID_2_);}
	.st3{fill:url(#SVGID_3_);}
	.st4{fill:url(#SVGID_4_);}
	.st5{fill:url(#SVGID_5_);}
	.st6{fill:url(#SVGID_6_);}
	.st7{fill:url(#SVGID_7_);}
	.st8{fill:url(#SVGID_8_);}
	.st9{fill:url(#SVGID_9_);}
	.st10{fill:url(#SVGID_10_);}
	.st11{fill:url(#SVGID_11_);}
	.st12{fill:url(#SVGID_12_);}
	.st13{fill:url(#SVGID_13_);}
	.st14{fill:url(#SVGID_14_);}
	.st15{fill:url(#SVGID_15_);}
	.st16{fill:url(#SVGID_16_);}
	.st17{fill:url(#SVGID_17_);}
	.st18{fill:url(#SVGID_18_);}
	.st19{fill:url(#SVGID_19_);}
	.st20{fill:url(#SVGID_20_);}
</style>
<rect x="124.2" y="30.2" class="st0" width="5" height="25.2"/>
<path class="st0" d="M119.2,30.2l-13.9,12.6l13.8,12.6h-7.6c0,0-11.9-10.8-11.9-10.8c-1-0.9-0.9-2.7,0-3.5l11.9-10.8H119.2
	L119.2,30.2z"/>
<rect x="91.4" y="30.2" class="st0" width="5" height="25.2"/>
<path class="st0" d="M36.9,55.4h21.9L44.6,30.9c-1-1.8-3.5-1.8-4.6,0L25.9,55.4h5.9l2.9-5l7.7-13.3L50,50.4H39.8L36.9,55.4z"/>
<path class="st0" d="M25.9,47.9c0,0.9-0.1,1.7-0.4,2.5c-1,2.9-3.8,5-7.1,5H0.2l2.9-5h15.3c1.4,0,2.5-1.1,2.5-2.5s-1.1-2.5-2.5-2.5
	H7.7c-3.2,0-5.9-2-7-4.8c-0.3-0.9-0.5-1.8-0.5-2.8c0-1,0.2-1.9,0.5-2.8c1.1-2.8,3.8-4.8,7-4.8h18.2l-2.9,5H7.7
	c-1.4,0-2.5,1.1-2.5,2.5s1.1,2.5,2.5,2.5h10.6c3.3,0,6.1,2.1,7.1,5C25.8,46.2,25.9,47,25.9,47.9z"/>
<path class="st0" d="M72.6,27.7c-7.8,0-14.1,6.3-14.1,14.1s6.3,14.1,14.1,14.1s14.1-6.3,14.1-14.1S80.4,27.7,72.6,27.7z M72.6,50.9
	c-5,0-9.1-4.1-9.1-9.1s4.1-9.1,9.1-9.1s9.1,4.1,9.1,9.1C81.7,46.8,77.6,50.9,72.6,50.9z"/>
<g>
	<path class="st0" d="M167.1,35.3v20.2h-5V35.3l-2.5,4.4l-2.9,5l-0.6,1.1c-0.4,0.5-0.9,1-1.5,1.3c-0.7,0.4-1.6,0.7-2.5,0.7
		c-0.9,0-1.8-0.2-2.6-0.7c-0.7-0.4-1.3-1-1.7-1.7l0,0l-0.1-0.2l0,0l-3.1-5.4l-2.5-4.4v20.2h-5V35.3c0-1.9,1-3.5,2.5-4.4
		c0.7-0.4,1.6-0.7,2.5-0.7c1.8,0,3.4,1,4.3,2.4c0,0.1,0.1,0.1,0.1,0.2l3.1,5.4l2.5,4.3l2.5-4.3l3.1-5.4c0-0.1,0.1-0.2,0.1-0.2
		c0.9-1.5,2.5-2.4,4.3-2.4c0.9,0,1.8,0.2,2.5,0.7C166.1,31.8,167.1,33.4,167.1,35.3z"/>
</g>
<g>
	<g>
		
			<linearGradient id="SVGID_1_" gradientUnits="userSpaceOnUse" x1="-4056.9009" y1="-3395.0159" x2="-4062.5715" y2="-3397.7561" gradientTransform="matrix(0 -1 -1 0 -3226.9546 -4033.3508)">
			<stop  offset="0" style="stop-color:#EE4023"/>
			<stop  offset="1" style="stop-color:#F9A533"/>
		</linearGradient>
		<path class="st1" d="M173.1,28.8c-0.4-1.3-1-2.9-2.4-4.2c-1.8-1.8-4.7-2.2-7.3-2.5c1.5,0.1,3.2,0.1,6,0
			C173.1,21.9,172.1,25,173.1,28.8z"/>
		
			<linearGradient id="SVGID_2_" gradientUnits="userSpaceOnUse" x1="-4055.1719" y1="-3393.4504" x2="-4062.7834" y2="-3399.0933" gradientTransform="matrix(0 -1 -1 0 -3226.9546 -4033.3508)">
			<stop  offset="0" style="stop-color:#EE4023"/>
			<stop  offset="1" style="stop-color:#F9A533"/>
		</linearGradient>
		<path class="st2" d="M174.4,24.1c-0.4,2.3-1.2,5.6-0.7,7.3c-0.2-0.7-0.4-1.6-0.7-2.7c-0.9-3.8,0-6.9-3.7-6.7c-2.9,0.1-4.5,0.1-6,0
			c-1.9-0.2-3.6-0.3-4.8-0.7c1.4,0.4,5-0.1,10.4-0.9C173.4,19.8,174.8,21.4,174.4,24.1z"/>
		
			<linearGradient id="SVGID_3_" gradientUnits="userSpaceOnUse" x1="-4048.1812" y1="-3383.4443" x2="-4060.0271" y2="-3401.2407" gradientTransform="matrix(0 -1 -1 0 -3226.9546 -4033.3508)">
			<stop  offset="0" style="stop-color:#EE4023"/>
			<stop  offset="1" style="stop-color:#F9A533"/>
		</linearGradient>
		<path class="st3" d="M157,19.7h14.2c2.2,0,3.9,1.6,3.9,3.6v9.5c-0.4,0-1.1-0.5-1.3-1.3c0,0,0,0,0,0c-0.5-1.7,0.3-5,0.7-7.3
			c0.4-2.8-1-4.4-5.5-3.6c-5.4,0.9-8.9,1.4-10.4,0.9c0,0-0.1,0-0.1,0c-0.1,0-0.1,0-0.2-0.1c0,0,0,0-0.1,0
			C157.4,21,157,20.5,157,19.7z"/>
		
			<linearGradient id="SVGID_4_" gradientUnits="userSpaceOnUse" x1="-4052.3389" y1="-3388.2695" x2="-4058.2625" y2="-3401.0959" gradientTransform="matrix(0 -1 -1 0 -3226.9546 -4033.3508)">
			<stop  offset="0" style="stop-color:#EE4023"/>
			<stop  offset="1" style="stop-color:#F9A533"/>
		</linearGradient>
		<path class="st4" d="M158,21.2c0,0,1.2,1,7.8-0.9c5.3-1.5,7.5,0.6,7.5,0.6s-1.4-1.1-6.6,0.2C160.5,22.7,158,21.2,158,21.2z"/>
		
			<linearGradient id="SVGID_5_" gradientUnits="userSpaceOnUse" x1="-4055.928" y1="-3394.8892" x2="-4062.9163" y2="-3398.7627" gradientTransform="matrix(0 -1 -1 0 -3226.9546 -4033.3508)">
			<stop  offset="0" style="stop-color:#EE4023"/>
			<stop  offset="1" style="stop-color:#F9A533"/>
		</linearGradient>
		<path class="st5" d="M163.3,22.1c0,0,3.3,0.3,5.4,0.4c2.6,0.1,3.3,2.2,4,5c-0.6-3.1,0.6-5-1.8-5.8
			C168.8,20.9,165.5,22.3,163.3,22.1z"/>
	</g>
	<g>
		
			<linearGradient id="SVGID_6_" gradientUnits="userSpaceOnUse" x1="-3253.8401" y1="4220.916" x2="-3259.5107" y2="4218.1758" gradientTransform="matrix(0 1 1 0 -4037.1506 3268.0325)">
			<stop  offset="0" style="stop-color:#EE4023"/>
			<stop  offset="1" style="stop-color:#F9A533"/>
		</linearGradient>
		<path class="st6" d="M178.8,8.9c0.4,1.3,1,2.8,2.4,4.2c1.8,1.8,4.7,2.2,7.3,2.4c-1.5-0.1-3.2-0.1-6,0
			C178.8,15.8,179.7,12.8,178.8,8.9z"/>
		
			<linearGradient id="SVGID_7_" gradientUnits="userSpaceOnUse" x1="-3252.1082" y1="4222.4761" x2="-3259.7195" y2="4216.833" gradientTransform="matrix(0 1 1 0 -4037.1506 3268.0325)">
			<stop  offset="0" style="stop-color:#EE4023"/>
			<stop  offset="1" style="stop-color:#F9A533"/>
		</linearGradient>
		<path class="st7" d="M177.4,13.6c0.4-2.3,1.2-5.6,0.7-7.3c0.2,0.7,0.4,1.6,0.7,2.7c0.9,3.8,0,6.8,3.7,6.7c2.9-0.1,4.5-0.1,6,0
			c1.9,0.2,3.6,0.3,4.8,0.7c-1.4-0.4-5,0.1-10.4,0.9C178.4,18,177,16.4,177.4,13.6z"/>
		
			<linearGradient id="SVGID_8_" gradientUnits="userSpaceOnUse" x1="-3245.1169" y1="4232.4824" x2="-3256.9629" y2="4214.686" gradientTransform="matrix(0 1 1 0 -4037.1506 3268.0325)">
			<stop  offset="0" style="stop-color:#EE4023"/>
			<stop  offset="1" style="stop-color:#F9A533"/>
		</linearGradient>
		<path class="st8" d="M194.8,18h-14.2c-2.2,0-3.9-1.6-3.9-3.6V5c0.4,0,1.1,0.5,1.3,1.3c0,0,0,0,0,0c0.5,1.7-0.3,5-0.7,7.3
			c-0.4,2.8,1,4.3,5.5,3.6c5.4-0.9,8.9-1.4,10.4-0.9c0,0,0.1,0,0.1,0c0.1,0,0.1,0,0.2,0.1c0,0,0,0,0.1,0
			C194.4,16.8,194.8,17.2,194.8,18z"/>
		
			<linearGradient id="SVGID_9_" gradientUnits="userSpaceOnUse" x1="-3249.2705" y1="4227.6553" x2="-3255.1943" y2="4214.8286" gradientTransform="matrix(0 1 1 0 -4037.1506 3268.0325)">
			<stop  offset="0" style="stop-color:#EE4023"/>
			<stop  offset="1" style="stop-color:#F9A533"/>
		</linearGradient>
		<path class="st9" d="M193.8,16.5c0,0-1.2-1-7.8,0.9c-5.3,1.5-7.5-0.6-7.5-0.6s1.4,1.1,6.6-0.2C191.4,15.1,193.8,16.5,193.8,16.5z"
			/>
		
			<linearGradient id="SVGID_10_" gradientUnits="userSpaceOnUse" x1="-3252.8669" y1="4221.042" x2="-3259.8552" y2="4217.1685" gradientTransform="matrix(0 1 1 0 -4037.1506 3268.0325)">
			<stop  offset="0" style="stop-color:#EE4023"/>
			<stop  offset="1" style="stop-color:#F9A533"/>
		</linearGradient>
		<path class="st10" d="M188.5,15.6c0,0-3.3-0.3-5.4-0.4c-2.6-0.1-3.3-2.2-4-5c0.6,3.1-0.6,4.9,1.8,5.8
			C183.1,16.8,186.3,15.4,188.5,15.6z"/>
	</g>
	<g>
		
			<linearGradient id="SVGID_11_" gradientUnits="userSpaceOnUse" x1="-7428.8423" y1="816.4716" x2="-7434.5132" y2="813.7312" gradientTransform="matrix(-1 0 0 1 -7248.2598 -789.7431)">
			<stop  offset="0" style="stop-color:#EE4023"/>
			<stop  offset="1" style="stop-color:#F9A533"/>
		</linearGradient>
		<path class="st11" d="M185.8,21.7c-1.3,0.4-2.9,1-4.2,2.4c-1.8,1.8-2.2,4.7-2.4,7.3c0.1-1.5,0.1-3.2,0-6
			C179,21.7,182,22.6,185.8,21.7z"/>
		
			<linearGradient id="SVGID_12_" gradientUnits="userSpaceOnUse" x1="-7427.1147" y1="818.0388" x2="-7434.7261" y2="812.3959" gradientTransform="matrix(-1 0 0 1 -7248.2598 -789.7431)">
			<stop  offset="0" style="stop-color:#EE4023"/>
			<stop  offset="1" style="stop-color:#F9A533"/>
		</linearGradient>
		<path class="st12" d="M181.2,20.4c2.3,0.4,5.6,1.2,7.3,0.7c-0.7,0.2-1.6,0.4-2.7,0.7c-3.8,0.9-6.9,0-6.7,3.7c0.1,2.9,0.1,4.5,0,6
			c-0.2,1.9-0.3,3.6-0.7,4.8c0.4-1.5-0.1-5-0.9-10.4C176.8,21.4,178.4,20,181.2,20.4z"/>
		
			<linearGradient id="SVGID_13_" gradientUnits="userSpaceOnUse" x1="-7420.1211" y1="828.0422" x2="-7431.9668" y2="810.2458" gradientTransform="matrix(-1 0 0 1 -7248.2598 -789.7431)">
			<stop  offset="0" style="stop-color:#EE4023"/>
			<stop  offset="1" style="stop-color:#F9A533"/>
		</linearGradient>
		<path class="st13" d="M176.7,37.8V23.6c0-2.2,1.6-3.9,3.6-3.9h9.5c0,0.4-0.5,1.1-1.3,1.3c0,0,0,0,0,0c-1.7,0.5-5-0.3-7.3-0.7
			c-2.8-0.4-4.4,1-3.6,5.5c0.9,5.4,1.4,8.9,0.9,10.4c0,0,0,0.1,0,0.1c0,0.1,0,0.1-0.1,0.2c0,0,0,0,0,0
			C178,37.4,177.5,37.8,176.7,37.8z"/>
		
			<linearGradient id="SVGID_14_" gradientUnits="userSpaceOnUse" x1="-7424.2783" y1="823.2169" x2="-7430.2021" y2="810.3903" gradientTransform="matrix(-1 0 0 1 -7248.2598 -789.7431)">
			<stop  offset="0" style="stop-color:#EE4023"/>
			<stop  offset="1" style="stop-color:#F9A533"/>
		</linearGradient>
		<path class="st14" d="M178.3,36.8c0,0,1-1.2-0.9-7.8c-1.5-5.3,0.6-7.5,0.6-7.5s-1.1,1.4,0.2,6.6C179.7,34.3,178.3,36.8,178.3,36.8
			z"/>
		
			<linearGradient id="SVGID_15_" gradientUnits="userSpaceOnUse" x1="-7427.8691" y1="816.5974" x2="-7434.8574" y2="812.7239" gradientTransform="matrix(-1 0 0 1 -7248.2598 -789.7431)">
			<stop  offset="0" style="stop-color:#EE4023"/>
			<stop  offset="1" style="stop-color:#F9A533"/>
		</linearGradient>
		<path class="st15" d="M179.1,31.5c0,0,0.3-3.3,0.4-5.4c0.1-2.6,2.2-3.3,5-4c-3.1,0.6-4.9-0.6-5.8,1.8
			C177.9,26,179.3,29.3,179.1,31.5z"/>
	</g>
	<g>
		
			<linearGradient id="SVGID_16_" gradientUnits="userSpaceOnUse" x1="171.2426" y1="64.9594" x2="165.5819" y2="62.224" gradientTransform="matrix(1 0 0 -1 0 76)">
			<stop  offset="0" style="stop-color:#EE4023"/>
			<stop  offset="1" style="stop-color:#F9A533"/>
		</linearGradient>
		<path class="st16" d="M166,16c1.3-0.4,2.9-1,4.2-2.4c1.8-1.8,2.2-4.6,2.4-7.3c-0.1,1.5-0.1,3.2,0,6C172.9,16,169.8,15.1,166,16z"
			/>
		
			<linearGradient id="SVGID_17_" gradientUnits="userSpaceOnUse" x1="172.9688" y1="66.5171" x2="165.3729" y2="60.8856" gradientTransform="matrix(1 0 0 -1 0 76)">
			<stop  offset="0" style="stop-color:#EE4023"/>
			<stop  offset="1" style="stop-color:#F9A533"/>
		</linearGradient>
		<path class="st17" d="M170.7,17.4c-2.3-0.4-5.6-1.2-7.3-0.7c0.7-0.2,1.6-0.4,2.7-0.7c3.8-0.9,6.9,0,6.7-3.7c-0.1-2.9-0.1-4.5,0-6
			c0.2-1.9,0.3-3.6,0.7-4.8c-0.4,1.5,0.1,5,0.9,10.4C175,16.4,173.4,17.8,170.7,17.4z"/>
		
			<linearGradient id="SVGID_18_" gradientUnits="userSpaceOnUse" x1="179.9341" y1="76.5074" x2="168.1163" y2="58.7531" gradientTransform="matrix(1 0 0 -1 0 76)">
			<stop  offset="0" style="stop-color:#EE4023"/>
			<stop  offset="1" style="stop-color:#F9A533"/>
		</linearGradient>
		<path class="st18" d="M175.1,0v14.1c0,2.2-1.6,3.9-3.6,3.9H162c0-0.4,0.5-1.1,1.3-1.3c0,0,0,0,0,0c1.7-0.5,5,0.3,7.3,0.7
			c2.8,0.4,4.3-1,3.6-5.5c-0.9-5.4-1.4-8.9-0.9-10.4c0,0,0-0.1,0-0.1c0-0.1,0-0.1,0.1-0.2c0,0,0,0,0,0C173.8,0.4,174.3,0,175.1,0z"
			/>
		
			<linearGradient id="SVGID_19_" gradientUnits="userSpaceOnUse" x1="175.7983" y1="71.6866" x2="169.893" y2="58.8999" gradientTransform="matrix(1 0 0 -1 0 76)">
			<stop  offset="0" style="stop-color:#EE4023"/>
			<stop  offset="1" style="stop-color:#F9A533"/>
		</linearGradient>
		<path class="st19" d="M173.6,1c0,0-1,1.2,0.9,7.8c1.5,5.2-0.6,7.5-0.6,7.5s1.1-1.4-0.2-6.5C172.1,3.5,173.6,1,173.6,1z"/>
		
			<linearGradient id="SVGID_20_" gradientUnits="userSpaceOnUse" x1="172.2154" y1="65.0835" x2="165.2408" y2="61.2176" gradientTransform="matrix(1 0 0 -1 0 76)">
			<stop  offset="0" style="stop-color:#EE4023"/>
			<stop  offset="1" style="stop-color:#F9A533"/>
		</linearGradient>
		<path class="st20" d="M172.7,6.3c0,0-0.3,3.2-0.4,5.4c-0.1,2.6-2.2,3.3-5,4c3.1-0.6,4.9,0.6,5.7-1.8
			C173.9,11.7,172.5,8.5,172.7,6.3z"/>
	</g>
</g>
<g>
	<path class="st0" d="M98.5,72.2c-0.6,0.6-1.5,0.9-2.6,0.9h-3.7c-0.5,0-0.7-0.2-0.7-0.7v-8.6c0-0.5,0.2-0.7,0.7-0.7h3.5
		c0.9,0,1.7,0.2,2.2,0.7c0.6,0.5,0.8,1.1,0.8,1.8c0,1-0.5,1.7-1.6,2.2c0.7,0.1,1.2,0.4,1.5,0.8c0.4,0.4,0.6,1,0.6,1.8
		C99.4,71,99.1,71.7,98.5,72.2z M95.8,64.3h-2.8v2.8h2.9c0.5,0,0.9-0.2,1.2-0.4c0.3-0.3,0.4-0.6,0.4-1
		C97.3,64.8,96.8,64.3,95.8,64.3z M92.9,68.4v3.4H96c1.3,0,2-0.6,2-1.7c0-1.1-0.7-1.7-2-1.7H92.9z"/>
	<path class="st0" d="M102.9,72.5c0,0.5-0.2,0.7-0.7,0.7c-0.5,0-0.7-0.2-0.7-0.7v-8.7c0-0.5,0.2-0.7,0.7-0.7h4.1
		c1.1,0,2,0.3,2.6,0.8c0.6,0.5,0.9,1.2,0.9,2.1c0,1.4-0.7,2.3-2.1,2.7l1.7,3.5c0.1,0.1,0.1,0.2,0.1,0.3c0,0.5-0.2,0.7-0.7,0.7
		c-0.3,0-0.5-0.1-0.7-0.4l-1.9-3.9h-3.2C102.9,68.9,102.9,72.5,102.9,72.5z M102.9,64.4v3.3h3.6c1.1,0,1.7-0.5,1.7-1.6
		c0-1.1-0.6-1.6-1.7-1.6L102.9,64.4L102.9,64.4z"/>
	<path class="st0" d="M120.4,72.2c0.1,0.1,0.1,0.2,0.1,0.3c0,0.4-0.2,0.7-0.7,0.7c-0.3,0-0.5-0.1-0.7-0.4l-1-2.2h-4.8l-1,2.2
		c-0.1,0.3-0.3,0.4-0.7,0.4c-0.4,0-0.7-0.2-0.7-0.7c0-0.1,0-0.2,0.1-0.3l4-8.9c0.1-0.3,0.3-0.4,0.7-0.4s0.5,0.1,0.7,0.4L120.4,72.2z
		 M115.7,65l-1.8,4.3h3.7L115.7,65z"/>
	<path class="st0" d="M130.1,72.5c0,0.4-0.2,0.7-0.7,0.7c-0.2,0-0.4-0.1-0.5-0.2l-5.8-7.4v6.9c0,0.4-0.2,0.7-0.7,0.7
		c-0.4,0-0.7-0.2-0.7-0.7v-8.9c0-0.5,0.2-0.7,0.7-0.7c0.2,0,0.4,0.1,0.6,0.3l5.8,7.4v-7c0-0.5,0.2-0.7,0.7-0.7
		c0.4,0,0.7,0.2,0.7,0.7V72.5z"/>
	<path class="st0" d="M140.5,71.7c-0.9,0.9-2.2,1.4-3.7,1.4H134c-0.5,0-0.7-0.2-0.7-0.7v-8.6c0-0.5,0.2-0.7,0.7-0.7h2.8
		c1.5,0,2.8,0.5,3.7,1.4c0.9,0.9,1.4,2.1,1.4,3.6C141.8,69.5,141.4,70.7,140.5,71.7z M139.4,65.4c-0.6-0.7-1.6-1-2.7-1h-2v7.4h2
		c1.1,0,2-0.3,2.7-1c0.6-0.7,1-1.6,1-2.7C140.4,67,140.1,66.1,139.4,65.4z"/>
	<path class="st0" d="M144.8,72.5c0,0.5-0.2,0.7-0.7,0.7c-0.5,0-0.7-0.2-0.7-0.7v-8.8c0-0.5,0.2-0.7,0.7-0.7c0.5,0,0.7,0.2,0.7,0.7
		V72.5z"/>
	<path class="st0" d="M156.1,72.5c0,0.4-0.2,0.7-0.7,0.7c-0.2,0-0.4-0.1-0.5-0.2l-5.8-7.4v6.9c0,0.4-0.2,0.7-0.7,0.7
		c-0.4,0-0.7-0.2-0.7-0.7v-8.9c0-0.5,0.2-0.7,0.7-0.7c0.2,0,0.4,0.1,0.6,0.3l5.8,7.4v-7c0-0.5,0.2-0.7,0.7-0.7
		c0.4,0,0.7,0.2,0.7,0.7L156.1,72.5L156.1,72.5z"/>
	<path class="st0" d="M167.1,71.2c0,0.2-0.1,0.4-0.2,0.5c-1,1.1-2.3,1.6-4.1,1.6c-1.5,0-2.8-0.5-3.7-1.5c-0.9-1-1.4-2.2-1.4-3.7
		c0-1.5,0.5-2.8,1.4-3.8c1-1,2.2-1.5,3.6-1.5c0.7,0,1.3,0.1,1.9,0.3c0.6,0.2,1.1,0.5,1.5,1c0.1,0.2,0.2,0.3,0.2,0.5
		c0,0.4-0.2,0.7-0.7,0.7c-0.2,0-0.3-0.1-0.5-0.2c-0.8-0.6-1.6-0.9-2.5-0.9c-1.1,0-1.9,0.4-2.6,1.1c-0.7,0.7-1,1.6-1,2.7
		c0,1.1,0.3,2.1,0.9,2.8c0.7,0.8,1.6,1.2,2.7,1.2c1.2,0,2.1-0.3,2.8-0.9v-1.9h-2.4c-0.4,0-0.7-0.2-0.7-0.7c0-0.4,0.2-0.7,0.7-0.7
		h3.1c0.5,0,0.7,0.2,0.7,0.7L167.1,71.2L167.1,71.2z"/>
</g>
</svg>
