<?xml version="1.0" encoding="utf-8"?>
<!-- Generator: Adobe Illustrator 25.0.0, SVG Export Plug-In . SVG Version: 6.00 Build 0)  -->
<svg version="1.1" id="Layer_1" xmlns="http://www.w3.org/2000/svg" xmlns:xlink="http://www.w3.org/1999/xlink" x="0px" y="0px"
	 viewBox="0 0 194 73" style="enable-background:new 0 0 194 73;" xml:space="preserve">
<style type="text/css">
	.st0{fill:url(#SVGID_1_);}
	.st1{fill:url(#SVGID_2_);}
	.st2{fill:url(#SVGID_3_);}
	.st3{fill:url(#SVGID_4_);}
	.st4{fill:url(#SVGID_5_);}
	.st5{fill:url(#SVGID_6_);}
	.st6{fill:url(#SVGID_7_);}
	.st7{fill:url(#SVGID_8_);}
	.st8{fill:url(#SVGID_9_);}
	.st9{fill:url(#SVGID_10_);}
	.st10{fill:url(#SVGID_11_);}
	.st11{fill:url(#SVGID_12_);}
	.st12{fill:url(#SVGID_13_);}
	.st13{fill:url(#SVGID_14_);}
	.st14{fill:url(#SVGID_15_);}
	.st15{fill:url(#SVGID_16_);}
	.st16{fill:url(#SVGID_17_);}
	.st17{fill:url(#SVGID_18_);}
	.st18{fill:url(#SVGID_19_);}
	.st19{fill:url(#SVGID_20_);}
	.st20{fill:url(#SVGID_21_);}
	.st21{fill:url(#SVGID_22_);}
	.st22{fill:url(#SVGID_23_);}
	.st23{fill:url(#SVGID_24_);}
	.st24{fill:url(#SVGID_25_);}
	.st25{fill:url(#SVGID_26_);}
	.st26{fill:url(#SVGID_27_);}
	.st27{fill:#224099;}
</style>
<linearGradient id="SVGID_1_" gradientUnits="userSpaceOnUse" x1="126.1194" y1="20.4672" x2="126.1194" y2="45.0451" gradientTransform="matrix(1 0 0 -1 0 75.37)">
	<stop  offset="0" style="stop-color:#0A195C"/>
	<stop  offset="1" style="stop-color:#224099"/>
</linearGradient>
<rect x="123.6" y="30.1" class="st0" width="5" height="25.1"/>
<linearGradient id="SVGID_2_" gradientUnits="userSpaceOnUse" x1="108.5457" y1="20.2301" x2="108.5457" y2="45.2577" gradientTransform="matrix(1 0 0 -1 0 75.37)">
	<stop  offset="0" style="stop-color:#0A195C"/>
	<stop  offset="1" style="stop-color:#224099"/>
</linearGradient>
<path class="st1" d="M118.6,30.1l-13.8,12.6l13.8,12.6h-7.5L99.2,44.4c-1-0.9-0.9-2.7,0-3.5l11.9-10.8H118.6L118.6,30.1z"/>
<linearGradient id="SVGID_3_" gradientUnits="userSpaceOnUse" x1="93.4824" y1="20.4895" x2="93.4824" y2="45.0786" gradientTransform="matrix(1 0 0 -1 0 75.37)">
	<stop  offset="0" style="stop-color:#0A195C"/>
	<stop  offset="1" style="stop-color:#224099"/>
</linearGradient>
<rect x="91" y="30.1" class="st2" width="5" height="25.1"/>
<linearGradient id="SVGID_4_" gradientUnits="userSpaceOnUse" x1="42.0559" y1="20.1433" x2="42.0559" y2="45.9099" gradientTransform="matrix(1 0 0 -1 0 75.37)">
	<stop  offset="0" style="stop-color:#0A195C"/>
	<stop  offset="1" style="stop-color:#224099"/>
</linearGradient>
<path class="st3" d="M36.6,55.2h21.8L44.3,30.8c-1-1.7-3.5-1.7-4.5,0L25.7,55.2h5.8l2.9-5l7.7-13.3l7.7,13.3H39.6L36.6,55.2z"/>
<linearGradient id="SVGID_5_" gradientUnits="userSpaceOnUse" x1="12.83" y1="20.1239" x2="12.83" y2="45.2412" gradientTransform="matrix(1 0 0 -1 0 75.37)">
	<stop  offset="0" style="stop-color:#0A195C"/>
	<stop  offset="1" style="stop-color:#224099"/>
</linearGradient>
<path class="st4" d="M25.7,47.7c0,0.9-0.2,1.7-0.4,2.5c-1,2.9-3.8,5-7.1,5H0l2.9-5h15.2c1.4,0,2.5-1.1,2.5-2.5s-1.1-2.5-2.5-2.5H7.5
	c-3.2,0-5.9-2-7-4.7C0.2,39.6,0,38.6,0,37.7s0.2-1.9,0.5-2.8c1.1-2.8,3.8-4.7,7-4.7h18.1l-2.9,5H7.5c-1.4,0-2.5,1.1-2.5,2.5
	s1.1,2.5,2.5,2.5h10.6c3.3,0,6.1,2.1,7.1,5C25.5,46,25.7,46.8,25.7,47.7z"/>
<linearGradient id="SVGID_6_" gradientUnits="userSpaceOnUse" x1="72.2122" y1="20.8464" x2="72.2122" y2="46.6169" gradientTransform="matrix(1 0 0 -1 0 75.37)">
	<stop  offset="0" style="stop-color:#0A195C"/>
	<stop  offset="1" style="stop-color:#224099"/>
</linearGradient>
<path class="st5" d="M72.2,27.6c-7.8,0-14.1,6.3-14.1,14.1s6.3,14.1,14.1,14.1s14.1-6.3,14.1-14.1S80,27.6,72.2,27.6z M72.2,50.7
	c-5,0-9-4.1-9-9s4.1-9,9-9c5,0,9,4.1,9,9S77.2,50.7,72.2,50.7z"/>
<g>
	
		<linearGradient id="SVGID_7_" gradientUnits="userSpaceOnUse" x1="151.2754" y1="20.3414" x2="151.2754" y2="45.2825" gradientTransform="matrix(1 0 0 -1 0 75.37)">
		<stop  offset="0" style="stop-color:#0A195C"/>
		<stop  offset="1" style="stop-color:#224099"/>
	</linearGradient>
	<path class="st6" d="M166.3,35.1v20.1h-5V35.1l-2.5,4.4l-2.9,5l-0.6,1.1c-0.4,0.5-0.9,1-1.5,1.3c-0.7,0.4-1.6,0.7-2.5,0.7
		c-0.9,0-1.8-0.3-2.5-0.7c-0.7-0.4-1.3-1-1.7-1.7l0,0l-0.1-0.3l0,0l-3.1-5.4l-2.5-4.4v20.1h-5V35.1c0-1.9,1-3.5,2.5-4.4
		c0.7-0.4,1.6-0.7,2.5-0.7c1.8,0,3.4,1,4.3,2.4c0,0.1,0.1,0.1,0.1,0.2l3.1,5.4l2.5,4.3l2.5-4.3l3.1-5.4c0-0.1,0.1-0.2,0.1-0.2
		c0.9-1.5,2.5-2.4,4.3-2.4c0.9,0,1.8,0.3,2.5,0.7C165.3,31.7,166.3,33.3,166.3,35.1z"/>
</g>
<g>
	<g>
		
			<linearGradient id="SVGID_8_" gradientUnits="userSpaceOnUse" x1="-3734.2622" y1="-3717.5405" x2="-3739.9128" y2="-3720.271" gradientTransform="matrix(0 -1 -1 0 -3550.2244 -3710.8113)">
			<stop  offset="0" style="stop-color:#EE4023"/>
			<stop  offset="1" style="stop-color:#F9A533"/>
		</linearGradient>
		<path class="st7" d="M172.3,28.7c-0.4-1.3-1-2.8-2.4-4.2c-1.8-1.8-4.7-2.2-7.3-2.4c1.5,0.1,3.1,0.1,6,0
			C172.3,21.9,171.4,24.9,172.3,28.7z"/>
		
			<linearGradient id="SVGID_9_" gradientUnits="userSpaceOnUse" x1="-3732.5227" y1="-3716.0039" x2="-3740.1074" y2="-3721.627" gradientTransform="matrix(0 -1 -1 0 -3550.2244 -3710.8113)">
			<stop  offset="0" style="stop-color:#EE4023"/>
			<stop  offset="1" style="stop-color:#F9A533"/>
		</linearGradient>
		<path class="st8" d="M173.7,24c-0.3,2.3-1.2,5.6-0.7,7.3c-0.2-0.7-0.4-1.6-0.7-2.7c-0.9-3.8,0-6.8-3.7-6.7c-2.9,0.1-4.5,0.1-6,0
			c-1.9-0.2-3.6-0.3-4.8-0.7c1.5,0.4,5-0.1,10.3-0.9C172.6,19.7,174.1,21.3,173.7,24z"/>
		
			<linearGradient id="SVGID_10_" gradientUnits="userSpaceOnUse" x1="-3725.5776" y1="-3706.0093" x2="-3737.3811" y2="-3723.7427" gradientTransform="matrix(0 -1 -1 0 -3550.2244 -3710.8113)">
			<stop  offset="0" style="stop-color:#EE4023"/>
			<stop  offset="1" style="stop-color:#F9A533"/>
		</linearGradient>
		<path class="st9" d="M156.3,19.6h14.1c2.2,0,3.9,1.6,3.9,3.6v9.4c-0.4,0-1.1-0.5-1.3-1.3c0,0,0,0,0,0c-0.5-1.7,0.3-5,0.7-7.3
			c0.4-2.7-1-4.3-5.5-3.6c-5.4,0.9-8.9,1.4-10.3,0.9c0,0-0.1,0-0.1,0c-0.1,0-0.1,0-0.2-0.1c0,0,0,0,0,0
			C156.7,20.9,156.3,20.4,156.3,19.6z"/>
		
			<linearGradient id="SVGID_11_" gradientUnits="userSpaceOnUse" x1="-3729.7068" y1="-3710.8247" x2="-3735.6094" y2="-3723.6057" gradientTransform="matrix(0 -1 -1 0 -3550.2244 -3710.8113)">
			<stop  offset="0" style="stop-color:#EE4023"/>
			<stop  offset="1" style="stop-color:#F9A533"/>
		</linearGradient>
		<path class="st10" d="M157.3,21.1c0,0,1.2,1,7.8-0.9c5.3-1.5,7.4,0.6,7.4,0.6s-1.4-1.1-6.5,0.2C159.8,22.6,157.3,21.1,157.3,21.1z
			"/>
		
			<linearGradient id="SVGID_12_" gradientUnits="userSpaceOnUse" x1="-3733.2974" y1="-3717.4065" x2="-3740.2612" y2="-3721.2661" gradientTransform="matrix(0 -1 -1 0 -3550.2244 -3710.8113)">
			<stop  offset="0" style="stop-color:#EE4023"/>
			<stop  offset="1" style="stop-color:#F9A533"/>
		</linearGradient>
		<path class="st11" d="M162.6,22c0,0,3.2,0.3,5.4,0.4c2.6,0.1,3.3,2.2,4,4.9c-0.6-3.1,0.6-4.9-1.7-5.7
			C168,20.8,164.8,22.2,162.6,22z"/>
	</g>
	<g>
		
			<linearGradient id="SVGID_13_" gradientUnits="userSpaceOnUse" x1="-3576.5464" y1="3896.9478" x2="-3582.1973" y2="3894.217" gradientTransform="matrix(0 1 1 0 -3713.9812 3590.6721)">
			<stop  offset="0" style="stop-color:#EE4023"/>
			<stop  offset="1" style="stop-color:#F9A533"/>
		</linearGradient>
		<path class="st12" d="M178,8.9c0.4,1.3,1,2.8,2.4,4.2c1.8,1.8,4.7,2.2,7.3,2.4c-1.5-0.1-3.1-0.1-6,0C178,15.7,178.9,12.7,178,8.9z
			"/>
		
			<linearGradient id="SVGID_14_" gradientUnits="userSpaceOnUse" x1="-3574.8076" y1="3898.4841" x2="-3582.3918" y2="3892.8611" gradientTransform="matrix(0 1 1 0 -3713.9812 3590.6721)">
			<stop  offset="0" style="stop-color:#EE4023"/>
			<stop  offset="1" style="stop-color:#F9A533"/>
		</linearGradient>
		<path class="st13" d="M176.6,13.6c0.3-2.3,1.2-5.6,0.7-7.3c0.2,0.7,0.4,1.6,0.7,2.7c0.9,3.8,0,6.8,3.7,6.7c2.9-0.1,4.5-0.1,6,0
			c1.9,0.2,3.6,0.3,4.8,0.7c-1.5-0.4-5,0.1-10.3,0.9C177.6,17.9,176.2,16.3,176.6,13.6z"/>
		
			<linearGradient id="SVGID_15_" gradientUnits="userSpaceOnUse" x1="-3567.8589" y1="3908.4763" x2="-3579.6628" y2="3890.7432" gradientTransform="matrix(0 1 1 0 -3713.9812 3590.6721)">
			<stop  offset="0" style="stop-color:#EE4023"/>
			<stop  offset="1" style="stop-color:#F9A533"/>
		</linearGradient>
		<path class="st14" d="M194,18h-14.1c-2.2,0-3.9-1.6-3.9-3.6V4.9c0.4,0,1.1,0.5,1.3,1.3c0,0,0,0,0,0c0.5,1.7-0.3,5-0.7,7.3
			c-0.4,2.7,1,4.3,5.5,3.6c5.4-0.9,8.9-1.4,10.3-0.9c0,0,0.1,0,0.1,0c0.1,0,0.1,0,0.2,0.1c0,0,0,0,0,0C193.6,16.7,194,17.2,194,18z"
			/>
		
			<linearGradient id="SVGID_16_" gradientUnits="userSpaceOnUse" x1="-3571.9875" y1="3903.6611" x2="-3577.8901" y2="3890.8796" gradientTransform="matrix(0 1 1 0 -3713.9812 3590.6721)">
			<stop  offset="0" style="stop-color:#EE4023"/>
			<stop  offset="1" style="stop-color:#F9A533"/>
		</linearGradient>
		<path class="st15" d="M193,16.4c0,0-1.2-1-7.8,0.9c-5.3,1.5-7.4-0.6-7.4-0.6s1.4,1.1,6.5-0.2C190.5,15,193,16.4,193,16.4z"/>
		
			<linearGradient id="SVGID_17_" gradientUnits="userSpaceOnUse" x1="-3575.5732" y1="3897.0664" x2="-3582.5366" y2="3893.2063" gradientTransform="matrix(0 1 1 0 -3713.9812 3590.6721)">
			<stop  offset="0" style="stop-color:#EE4023"/>
			<stop  offset="1" style="stop-color:#F9A533"/>
		</linearGradient>
		<path class="st16" d="M187.7,15.6c0,0-3.2-0.3-5.4-0.4c-2.6-0.1-3.3-2.2-4-4.9c0.6,3.1-0.6,4.9,1.7,5.7
			C182.3,16.8,185.5,15.4,187.7,15.6z"/>
	</g>
	<g>
		
			<linearGradient id="SVGID_18_" gradientUnits="userSpaceOnUse" x1="-7428.1567" y1="170.554" x2="-7433.8071" y2="167.8235" gradientTransform="matrix(-1 0 0 1 -7248.3599 -143.9337)">
			<stop  offset="0" style="stop-color:#EE4023"/>
			<stop  offset="1" style="stop-color:#F9A533"/>
		</linearGradient>
		<path class="st17" d="M185,21.6c-1.3,0.4-2.8,1-4.2,2.4c-1.8,1.8-2.2,4.7-2.4,7.3c0.1-1.5,0.1-3.1,0-6
			C178.2,21.6,181.2,22.5,185,21.6z"/>
		
			<linearGradient id="SVGID_19_" gradientUnits="userSpaceOnUse" x1="-7426.417" y1="172.0891" x2="-7434.0015" y2="166.4662" gradientTransform="matrix(-1 0 0 1 -7248.3599 -143.9337)">
			<stop  offset="0" style="stop-color:#EE4023"/>
			<stop  offset="1" style="stop-color:#F9A533"/>
		</linearGradient>
		<path class="st18" d="M180.4,20.3c2.3,0.3,5.6,1.2,7.3,0.7c-0.7,0.2-1.6,0.4-2.7,0.7c-3.8,0.9-6.8,0-6.7,3.7c0.1,2.9,0.1,4.5,0,6
			c-0.2,1.9-0.3,3.6-0.7,4.8c0.4-1.5-0.1-5-0.9-10.3C176,21.3,177.6,19.9,180.4,20.3z"/>
		
			<linearGradient id="SVGID_20_" gradientUnits="userSpaceOnUse" x1="-7419.4741" y1="182.0862" x2="-7431.2783" y2="164.3529" gradientTransform="matrix(-1 0 0 1 -7248.3599 -143.9337)">
			<stop  offset="0" style="stop-color:#EE4023"/>
			<stop  offset="1" style="stop-color:#F9A533"/>
		</linearGradient>
		<path class="st19" d="M176,37.6V23.5c0-2.2,1.6-3.9,3.6-3.9h9.4c0,0.4-0.5,1.1-1.3,1.3c0,0,0,0,0,0c-1.7,0.5-5-0.3-7.3-0.7
			c-2.7-0.4-4.3,1-3.6,5.5c0.9,5.4,1.4,8.9,0.9,10.3c0,0,0,0.1,0,0.1c0,0.1,0,0.1-0.1,0.2c0,0,0,0,0,0
			C177.2,37.2,176.8,37.6,176,37.6z"/>
		
			<linearGradient id="SVGID_21_" gradientUnits="userSpaceOnUse" x1="-7423.6123" y1="177.2742" x2="-7429.5156" y2="164.4931" gradientTransform="matrix(-1 0 0 1 -7248.3599 -143.9337)">
			<stop  offset="0" style="stop-color:#EE4023"/>
			<stop  offset="1" style="stop-color:#F9A533"/>
		</linearGradient>
		<path class="st20" d="M177.5,36.6c0,0,1-1.2-0.9-7.8c-1.5-5.3,0.6-7.4,0.6-7.4s-1.1,1.4,0.2,6.5C178.9,34.2,177.5,36.6,177.5,36.6
			z"/>
		
			<linearGradient id="SVGID_22_" gradientUnits="userSpaceOnUse" x1="-7427.188" y1="170.6797" x2="-7434.1509" y2="166.8198" gradientTransform="matrix(-1 0 0 1 -7248.3599 -143.9337)">
			<stop  offset="0" style="stop-color:#EE4023"/>
			<stop  offset="1" style="stop-color:#F9A533"/>
		</linearGradient>
		<path class="st21" d="M178.3,31.4c0,0,0.3-3.2,0.4-5.4c0.1-2.6,2.2-3.3,4.9-4c-3.1,0.6-4.9-0.6-5.7,1.7
			C177.2,25.9,178.6,29.1,178.3,31.4z"/>
	</g>
	<g>
		
			<linearGradient id="SVGID_23_" gradientUnits="userSpaceOnUse" x1="170.4862" y1="64.3914" x2="164.8456" y2="61.6657" gradientTransform="matrix(1 0 0 -1 0 75.37)">
			<stop  offset="0" style="stop-color:#EE4023"/>
			<stop  offset="1" style="stop-color:#F9A533"/>
		</linearGradient>
		<path class="st22" d="M165.3,15.9c1.3-0.4,2.8-1,4.2-2.4c1.8-1.8,2.2-4.6,2.4-7.3c-0.1,1.5-0.1,3.1,0,6
			C172.1,15.9,169.1,15.1,165.3,15.9z"/>
		
			<linearGradient id="SVGID_24_" gradientUnits="userSpaceOnUse" x1="172.2139" y1="65.9311" x2="164.645" y2="60.3196" gradientTransform="matrix(1 0 0 -1 0 75.37)">
			<stop  offset="0" style="stop-color:#EE4023"/>
			<stop  offset="1" style="stop-color:#F9A533"/>
		</linearGradient>
		<path class="st23" d="M169.9,17.3c-2.3-0.3-5.6-1.2-7.3-0.7c0.7-0.2,1.6-0.4,2.7-0.7c3.8-0.9,6.8,0,6.7-3.7c-0.1-2.9-0.1-4.5,0-6
			c0.2-1.9,0.3-3.6,0.7-4.8c-0.4,1.4,0.1,4.9,0.9,10.3C174.3,16.3,172.7,17.7,169.9,17.3z"/>
		
			<linearGradient id="SVGID_25_" gradientUnits="userSpaceOnUse" x1="179.1542" y1="75.8894" x2="167.3782" y2="58.198" gradientTransform="matrix(1 0 0 -1 0 75.37)">
			<stop  offset="0" style="stop-color:#EE4023"/>
			<stop  offset="1" style="stop-color:#F9A533"/>
		</linearGradient>
		<path class="st24" d="M174.3,0v14.1c0,2.2-1.6,3.9-3.6,3.9h-9.4c0-0.4,0.5-1.1,1.3-1.3c0,0,0,0,0,0c1.7-0.5,5,0.3,7.3,0.7
			c2.7,0.4,4.3-1,3.6-5.5c-0.9-5.4-1.4-8.9-0.9-10.3c0,0,0-0.1,0-0.1c0-0.1,0-0.1,0.1-0.2c0,0,0,0,0,0C173,0.4,173.5,0,174.3,0z"/>
		
			<linearGradient id="SVGID_26_" gradientUnits="userSpaceOnUse" x1="175.0317" y1="71.087" x2="169.1474" y2="58.3456" gradientTransform="matrix(1 0 0 -1 0 75.37)">
			<stop  offset="0" style="stop-color:#EE4023"/>
			<stop  offset="1" style="stop-color:#F9A533"/>
		</linearGradient>
		<path class="st25" d="M172.8,1c0,0-1,1.2,0.9,7.8c1.5,5.2-0.6,7.4-0.6,7.4s1.1-1.4-0.2-6.5C171.4,3.4,172.8,1,172.8,1z"/>
		
			<linearGradient id="SVGID_27_" gradientUnits="userSpaceOnUse" x1="171.4598" y1="64.5062" x2="164.5101" y2="60.6539" gradientTransform="matrix(1 0 0 -1 0 75.37)">
			<stop  offset="0" style="stop-color:#EE4023"/>
			<stop  offset="1" style="stop-color:#F9A533"/>
		</linearGradient>
		<path class="st26" d="M171.9,6.3c0,0-0.3,3.2-0.4,5.4c-0.1,2.6-2.2,3.3-4.9,4c3.1-0.6,4.9,0.6,5.7-1.7
			C173.1,11.7,171.7,8.5,171.9,6.3z"/>
	</g>
</g>
<g>
	<path class="st27" d="M98,72c-0.6,0.6-1.5,0.9-2.6,0.9h-3.7c-0.5,0-0.7-0.3-0.7-0.7v-8.6c0-0.5,0.2-0.7,0.7-0.7h3.5
		c0.9,0,1.7,0.2,2.2,0.7c0.6,0.4,0.8,1,0.8,1.8c0,1-0.5,1.7-1.6,2.2c0.7,0.1,1.2,0.4,1.5,0.8c0.4,0.4,0.6,1,0.6,1.8
		C98.9,70.8,98.6,71.4,98,72z M95.3,64.1h-2.8v2.8h2.9c0.5,0,0.9-0.2,1.1-0.4c0.3-0.3,0.4-0.6,0.4-1C96.8,64.5,96.3,64.1,95.3,64.1z
		 M92.4,68.2v3.4h3.1c1.3,0,2-0.6,2-1.7c0-1.1-0.7-1.6-2-1.6L92.4,68.2L92.4,68.2z"/>
	<path class="st27" d="M102.4,72.2c0,0.5-0.2,0.7-0.7,0.7c-0.5,0-0.7-0.3-0.7-0.7v-8.7c0-0.5,0.3-0.7,0.7-0.7h4.1
		c1.1,0,2,0.3,2.6,0.8c0.6,0.5,0.9,1.2,0.9,2.1c0,1.4-0.7,2.3-2.1,2.7l1.7,3.4c0.1,0.1,0.1,0.2,0.1,0.3c0,0.5-0.2,0.7-0.7,0.7
		c-0.3,0-0.5-0.1-0.6-0.4l-1.9-3.9h-3.2C102.4,68.6,102.4,72.2,102.4,72.2z M102.4,64.1v3.2h3.6c1.1,0,1.7-0.5,1.7-1.6
		c0-1.1-0.6-1.6-1.7-1.6L102.4,64.1L102.4,64.1z"/>
	<path class="st27" d="M119.8,72c0.1,0.1,0.1,0.2,0.1,0.3c0,0.4-0.2,0.7-0.7,0.7c-0.3,0-0.5-0.1-0.6-0.4l-1-2.2h-4.7l-1,2.2
		c-0.1,0.3-0.3,0.4-0.6,0.4c-0.4,0-0.7-0.2-0.7-0.7c0-0.1,0-0.2,0.1-0.3l4-8.9c0.1-0.3,0.3-0.4,0.6-0.4s0.5,0.1,0.6,0.4L119.8,72z
		 M115.2,64.8l-1.8,4.3h3.7L115.2,64.8z"/>
	<path class="st27" d="M129.5,72.3c0,0.4-0.2,0.7-0.7,0.7c-0.2,0-0.4-0.1-0.5-0.3l-5.8-7.4v6.9c0,0.4-0.2,0.7-0.7,0.7
		c-0.4,0-0.7-0.2-0.7-0.7v-8.9c0-0.5,0.2-0.7,0.7-0.7c0.2,0,0.4,0.1,0.5,0.3l5.8,7.3v-6.9c0-0.5,0.2-0.7,0.7-0.7
		c0.4,0,0.7,0.2,0.7,0.7L129.5,72.3L129.5,72.3z"/>
	<path class="st27" d="M139.8,71.4c-0.9,0.9-2.2,1.4-3.7,1.4h-2.8c-0.5,0-0.7-0.3-0.7-0.7v-8.6c0-0.5,0.3-0.7,0.7-0.7h2.8
		c1.5,0,2.8,0.5,3.7,1.4c0.9,0.9,1.4,2.1,1.4,3.6C141.2,69.3,140.7,70.5,139.8,71.4z M138.8,65.1c-0.7-0.7-1.6-1-2.7-1h-2v7.4h2
		c1.1,0,2-0.3,2.7-1c0.6-0.7,0.9-1.6,0.9-2.7C139.7,66.7,139.4,65.8,138.8,65.1z"/>
	<path class="st27" d="M144.2,72.2c0,0.5-0.2,0.7-0.7,0.7s-0.7-0.3-0.7-0.7v-8.8c0-0.5,0.3-0.7,0.7-0.7s0.7,0.3,0.7,0.7V72.2z"/>
	<path class="st27" d="M155.4,72.3c0,0.4-0.2,0.7-0.7,0.7c-0.2,0-0.4-0.1-0.5-0.3l-5.8-7.4v6.9c0,0.4-0.2,0.7-0.7,0.7
		c-0.4,0-0.7-0.2-0.7-0.7v-8.9c0-0.5,0.2-0.7,0.7-0.7c0.2,0,0.4,0.1,0.5,0.3l5.8,7.3v-6.9c0-0.5,0.2-0.7,0.7-0.7
		c0.4,0,0.7,0.2,0.7,0.7L155.4,72.3L155.4,72.3z"/>
	<path class="st27" d="M166.3,70.9c0,0.2-0.1,0.4-0.2,0.5c-1,1.1-2.3,1.6-4,1.6c-1.5,0-2.8-0.5-3.7-1.5c-0.9-1-1.4-2.2-1.4-3.7
		c0-1.5,0.5-2.8,1.4-3.7c0.9-1,2.2-1.5,3.6-1.5c0.7,0,1.3,0.1,1.9,0.3c0.6,0.2,1.1,0.5,1.5,1c0.2,0.2,0.2,0.3,0.2,0.5
		c0,0.4-0.2,0.7-0.7,0.7c-0.2,0-0.3-0.1-0.5-0.2c-0.8-0.6-1.6-0.9-2.5-0.9c-1.1,0-1.9,0.4-2.6,1.1c-0.7,0.7-1,1.6-1,2.7
		c0,1.1,0.3,2.1,0.9,2.8c0.7,0.8,1.6,1.2,2.7,1.2c1.2,0,2.1-0.3,2.8-0.9V69h-2.4c-0.4,0-0.7-0.2-0.7-0.7c0-0.4,0.2-0.6,0.7-0.6h3.1
		c0.5,0,0.7,0.3,0.7,0.7L166.3,70.9L166.3,70.9z"/>
</g>
</svg>
